<svg width="1400" height="687" viewBox="0 0 1400 687" fill="none" xmlns="http://www.w3.org/2000/svg">
<path d="M205 562.463L230 549.951L255 562.463L230 574.976L205 562.463Z" fill="#B684E1"/>
<path d="M205 562.463L230 574.976V600L205 587.488V562.463Z" fill="#E9B4FF"/>
<path d="M230 574.976L255 562.463V587.488L230 600V574.976Z" fill="#8556AF"/>
<path d="M317.5 312.219L342.5 299.707L367.5 312.219L342.5 324.732L317.5 312.219Z" fill="#B684E1"/>
<path d="M317.5 312.219L342.5 324.732V349.756L317.5 337.244V312.219Z" fill="#E9B4FF"/>
<path d="M342.5 324.732L367.5 312.219V337.244L342.5 349.756V324.732Z" fill="#8556AF"/>
<path d="M367.5 474.878L392.5 462.366L417.5 474.878L392.5 487.39L367.5 474.878Z" fill="#B684E1"/>
<path d="M367.5 474.878L392.5 487.39V512.415L367.5 499.902V474.878Z" fill="#E9B4FF"/>
<path d="M392.5 487.39L417.5 474.878V499.902L392.5 512.415V487.39Z" fill="#8556AF"/>
<path d="M217.5 424.829L242.5 412.317L267.5 424.829L242.5 437.342L217.5 424.829Z" fill="#B684E1"/>
<path d="M217.5 424.829L242.5 437.342V462.366L217.5 449.854V424.829Z" fill="#E9B4FF"/>
<path d="M242.5 437.342L267.5 424.829V449.854L242.5 462.366V437.342Z" fill="#8556AF"/>
<path d="M80 224.634L105 212.122L130 224.634L105 237.146L80 224.634Z" fill="#B684E1"/>
<path d="M80 224.634L105 237.146V262.171L80 249.659V224.634Z" fill="#E9B4FF"/>
<path d="M105 237.146L130 224.634V249.659L105 262.171V237.146Z" fill="#8556AF"/>
<path d="M967.5 324.732L992.5 312.219L1017.5 324.732L992.5 337.244L967.5 324.732Z" fill="#B684E1"/>
<path d="M967.5 324.732L992.5 337.244V362.268L967.5 349.756V324.732Z" fill="#E9B4FF"/>
<path d="M992.5 337.244L1017.5 324.732V349.756L992.5 362.268V337.244Z" fill="#8556AF"/>
<path d="M855 499.902L880 487.39L905 499.902L880 512.415L855 499.902Z" fill="#B684E1"/>
<path d="M855 499.902L880 512.415V537.439L855 524.927V499.902Z" fill="#E9B4FF"/>
<path d="M880 512.415L905 499.902V524.927L880 537.439V512.415Z" fill="#8556AF"/>
<path d="M1305 362.268L1330 349.756L1355 362.268L1330 374.78L1305 362.268Z" fill="#B684E1"/>
<path d="M1305 362.268L1330 374.781V399.805L1305 387.293V362.268Z" fill="#E9B4FF"/>
<path d="M1330 374.781L1355 362.268V387.293L1330 399.805V374.781Z" fill="#8556AF"/>
<path d="M1292.5 124.537L1317.5 112.024L1342.5 124.537L1317.5 137.049L1292.5 124.537Z" fill="#B684E1"/>
<path d="M1292.5 124.537L1317.5 137.049V162.073L1292.5 149.561V124.537Z" fill="#E9B4FF"/>
<path d="M1317.5 137.049L1342.5 124.537V149.561L1317.5 162.073V137.049Z" fill="#8556AF"/>
<path d="M242.5 237.146L267.5 224.634L292.5 237.146L267.5 249.659L242.5 237.146Z" fill="#8300F5"/>
<path d="M242.5 237.146L267.5 249.659V274.683L242.5 262.171V237.146Z" fill="#BB4CFF"/>
<path d="M267.5 249.659L292.5 237.146V262.171L267.5 274.683V249.659Z" fill="#4600C1"/>
<path d="M80 499.902L105 487.39L130 499.902L105 512.415L80 499.902Z" fill="#8300F5"/>
<path d="M80 499.902L105 512.415V537.439L80 524.927V499.902Z" fill="#BB4CFF"/>
<path d="M105 512.415L130 499.902V524.927L105 537.439V512.415Z" fill="#4600C1"/>
<path d="M642.5 224.634L667.5 212.122L692.5 224.634L667.5 237.146L642.5 224.634Z" fill="#8300F5"/>
<path d="M642.5 224.634L667.5 237.146V262.171L642.5 249.659V224.634Z" fill="#BB4CFF"/>
<path d="M667.5 237.146L692.5 224.634V249.659L667.5 262.171V237.146Z" fill="#4600C1"/>
<path d="M1130 99.5122L1155 87L1180 99.5122L1155 112.024L1130 99.5122Z" fill="#8300F5"/>
<path d="M1130 99.5122L1155 112.024V137.049L1130 124.537V99.5122Z" fill="#BB4CFF"/>
<path d="M1155 112.024L1180 99.5122V124.537L1155 137.049V112.024Z" fill="#4600C1"/>
<path d="M1092.5 224.634L1117.5 212.122L1142.5 224.634L1117.5 237.146L1092.5 224.634Z" fill="#8300F5"/>
<path d="M1092.5 224.634L1117.5 237.146V262.171L1092.5 249.659V224.634Z" fill="#BB4CFF"/>
<path d="M1117.5 237.146L1142.5 224.634V249.659L1117.5 262.171V237.146Z" fill="#4600C1"/>
<path d="M1205 249.659L1230 237.146L1255 249.659L1230 262.171L1205 249.659Z" fill="#8300F5"/>
<path d="M1205 249.659L1230 262.171V287.195L1205 274.683V249.659Z" fill="#BB4CFF"/>
<path d="M1230 262.171L1255 249.659V274.683L1230 287.195V262.171Z" fill="#4600C1"/>
<path d="M1167.5 374.781L1192.5 362.268L1217.5 374.781L1192.5 387.293L1167.5 374.781Z" fill="#8300F5"/>
<path d="M1167.5 374.781L1192.5 387.293V412.317L1167.5 399.805V374.781Z" fill="#BB4CFF"/>
<path d="M1192.5 387.293L1217.5 374.781V399.805L1192.5 412.317V387.293Z" fill="#4600C1"/>
<path d="M1142.5 412.317L1167.5 399.805L1192.5 412.317L1167.5 424.829L1142.5 412.317Z" fill="#8300F5"/>
<path d="M1142.5 412.317L1167.5 424.829V449.854L1142.5 437.342V412.317Z" fill="#BB4CFF"/>
<path d="M1167.5 424.829L1192.5 412.317V437.342L1167.5 449.854V424.829Z" fill="#4600C1"/>
<path d="M1117.5 374.781L1142.5 362.268L1167.5 374.781L1142.5 387.293L1117.5 374.781Z" fill="#8300F5"/>
<path d="M1117.5 374.781L1142.5 387.293V412.317L1117.5 399.805V374.781Z" fill="#BB4CFF"/>
<path d="M1142.5 387.293L1167.5 374.781V399.805L1142.5 412.317V387.293Z" fill="#4600C1"/>
<path d="M1142.5 337.244L1167.5 324.732L1192.5 337.244L1167.5 349.756L1142.5 337.244Z" fill="#8300F5"/>
<path d="M1142.5 337.244L1167.5 349.756V374.78L1142.5 362.268V337.244Z" fill="#BB4CFF"/>
<path d="M1167.5 349.756L1192.5 337.244V362.268L1167.5 374.78V349.756Z" fill="#4600C1"/>
<path d="M1192.5 337.244L1217.5 324.732L1242.5 337.244L1217.5 349.756L1192.5 337.244Z" fill="#8300F5"/>
<path d="M1192.5 337.244L1217.5 349.756V374.78L1192.5 362.268V337.244Z" fill="#BB4CFF"/>
<path d="M1217.5 349.756L1242.5 337.244V362.268L1217.5 374.78V349.756Z" fill="#4600C1"/>
<path d="M1255 224.634L1280 212.122L1305 224.634L1280 237.146L1255 224.634Z" fill="#8300F5"/>
<path d="M1255 224.634L1280 237.146V262.171L1255 249.659V224.634Z" fill="#BB4CFF"/>
<path d="M1280 237.146L1305 224.634V249.659L1280 262.171V237.146Z" fill="#4600C1"/>
<path d="M1230 187.098L1255 174.585L1280 187.098L1255 199.61L1230 187.098Z" fill="#8300F5"/>
<path d="M1230 187.098L1255 199.61V224.634L1230 212.122V187.098Z" fill="#BB4CFF"/>
<path d="M1255 199.61L1280 187.098V212.122L1255 224.634V199.61Z" fill="#4600C1"/>
<path d="M105 462.366L130 449.854L155 462.366L130 474.878L105 462.366Z" fill="#8300F5"/>
<path d="M105 462.366L130 474.878V499.902L105 487.39V462.366Z" fill="#BB4CFF"/>
<path d="M130 474.878L155 462.366V487.39L130 499.902V474.878Z" fill="#4600C1"/>
<path d="M155 462.366L180 449.854L205 462.366L180 474.878L155 462.366Z" fill="#8300F5"/>
<path d="M155 462.366L180 474.878V499.902L155 487.39V462.366Z" fill="#BB4CFF"/>
<path d="M180 474.878L205 462.366V487.39L180 499.902V474.878Z" fill="#4600C1"/>
<path d="M130 424.829L155 412.317L180 424.829L155 437.342L130 424.829Z" fill="#8300F5"/>
<path d="M130 424.829L155 437.342V462.366L130 449.854V424.829Z" fill="#BB4CFF"/>
<path d="M155 437.342L180 424.829V449.854L155 462.366V437.342Z" fill="#4600C1"/>
<path d="M242.5 287.195L267.5 274.683L292.5 287.195L267.5 299.707L242.5 287.195Z" fill="#8300F5"/>
<path d="M242.5 287.195L267.5 299.707V324.732L242.5 312.219V287.195Z" fill="#BB4CFF"/>
<path d="M267.5 299.707L292.5 287.195V312.219L267.5 324.732V299.707Z" fill="#4600C1"/>
<path d="M292.5 212.122L317.5 199.61L342.5 212.122L317.5 224.634L292.5 212.122Z" fill="#8300F5"/>
<path d="M292.5 212.122L317.5 224.634V249.659L292.5 237.146V212.122Z" fill="#BB4CFF"/>
<path d="M317.5 224.634L342.5 212.122V237.146L317.5 249.659V224.634Z" fill="#4600C1"/>
<path d="M317.5 249.659L342.5 237.146L367.5 249.659L342.5 262.171L317.5 249.659Z" fill="#8300F5"/>
<path d="M317.5 249.659L342.5 262.171V287.195L317.5 274.683V249.659Z" fill="#BB4CFF"/>
<path d="M342.5 262.171L367.5 249.659V274.683L342.5 287.195V262.171Z" fill="#4600C1"/>
<path d="M667.5 187.098L692.5 174.585L717.5 187.098L692.5 199.61L667.5 187.098Z" fill="#8300F5"/>
<path d="M667.5 187.098L692.5 199.61V224.634L667.5 212.122V187.098Z" fill="#BB4CFF"/>
<path d="M692.5 199.61L717.5 187.098V212.122L692.5 224.634V199.61Z" fill="#4600C1"/>
</svg>
